<svg version="1.1" xmlns="http://www.w3.org/2000/svg" xmlns:xlink="http://www.w3.org/1999/xlink" width="195.39471" height="76.98551" viewBox="0,0,195.39471,76.98551"><defs><linearGradient x1="182.15712" y1="177.28939" x2="182.15712" y2="200.7072" gradientUnits="userSpaceOnUse" id="color-1"><stop offset="0" stop-color="#f7ff00"/><stop offset="1" stop-color="#d2d600"/></linearGradient></defs><g transform="translate(-151.83031,-148.76323)"><g data-paper-data="{&quot;isPaintingLayer&quot;:true}" fill-rule="nonzero" stroke-linejoin="miter" stroke-miterlimit="10" stroke-dasharray="" stroke-dashoffset="0" style="mix-blend-mode: normal"><path d="M180.38903,210.78073v-60.78999c0,0 141.00958,0 154.93874,0c7.20669,0 11.89725,3.166 11.89725,12.02469c0,14.00683 0,21.88394 0,35.89077c0,8.86989 -3.60415,12.87453 -12.21771,12.87453c-14.30436,0 -154.61828,0 -154.61828,0z" data-paper-data="{&quot;origPos&quot;:null}" fill="#000000" stroke="none" stroke-width="0" stroke-linecap="butt"/><path d="M210.15675,180.51481c0,15.9023 -12.66508,28.79367 -28.28822,28.79367c-15.62316,0 -28.28822,-12.89137 -28.28822,-28.79367c0,-15.9023 12.66508,-28.79367 28.28822,-28.79367c15.62316,0 28.28822,12.89137 28.28822,28.79367z" data-paper-data="{&quot;origPos&quot;:null}" fill="#78e7ef" stroke="none" stroke-width="0" stroke-linecap="butt"/><text transform="translate(212.00002,169.47054) scale(0.47603,0.47603)" font-size="40" xml:space="preserve" data-paper-data="{&quot;origPos&quot;:null}" fill="#ffffff" fill-rule="nonzero" stroke="none" stroke-width="1" stroke-linecap="butt" stroke-linejoin="miter" stroke-miterlimit="10" stroke-dasharray="" stroke-dashoffset="0" font-family="Sans Serif" font-weight="normal" text-anchor="start" style="mix-blend-mode: normal"><tspan x="0" dy="0">Corn Lab</tspan></text><text transform="translate(213.50002,182.81539) scale(0.22983,0.22983)" font-size="40" xml:space="preserve" data-paper-data="{&quot;origPos&quot;:null}" fill="#ffffff" fill-rule="nonzero" stroke="none" stroke-width="1" stroke-linecap="butt" stroke-linejoin="miter" stroke-miterlimit="10" stroke-dasharray="" stroke-dashoffset="0" font-family="Sans Serif" font-weight="normal" text-anchor="start" style="mix-blend-mode: normal"><tspan x="0" dy="0">Increases Corn per second</tspan><tspan x="0" dy="46.150000000000006px">by 250,000 corn.</tspan></text><path d="M208.01166,201.19215c37.96911,0 89.7537,0 97.68987,0c4.24032,0 6.37975,0.76819 6.37975,5.58228c0,1.37926 -0.17224,10.75061 -0.14088,12.1295c0.05113,2.24869 -1.07557,4.66689 -4.31946,4.76653c-6.86018,0.2107 -61.67399,1.68787 -100.60609,1.24637c-2.152,-0.02441 -4.38607,-2.73462 -4.18671,-5.78165c0.10667,-1.63043 0,-7.83833 0,-11.96202c0,-3.9291 1.16692,-5.98101 5.18354,-5.98101z" data-paper-data="{&quot;origPos&quot;:null,&quot;index&quot;:null}" fill="#000000" stroke="#ffffff" stroke-width="1.5" stroke-linecap="butt"/><text transform="translate(217.54752,217.44795) scale(0.34666,0.34666)" font-size="40" xml:space="preserve" data-paper-data="{&quot;origPos&quot;:null}" fill="#ffffff" fill-rule="nonzero" stroke="none" stroke-width="3" stroke-linecap="butt" stroke-linejoin="miter" stroke-miterlimit="10" stroke-dasharray="" stroke-dashoffset="0" font-family="Sans Serif" font-weight="normal" text-anchor="start" style="mix-blend-mode: normal"><tspan x="0" dy="0">Buy for 20M</tspan></text><path d="M210.15675,180.51481c0,15.9023 -12.66508,28.79367 -28.28822,28.79367c-15.62316,0 -28.28822,-12.89137 -28.28822,-28.79367c0,-15.9023 12.66508,-28.79367 28.28822,-28.79367c15.62316,0 28.28822,12.89137 28.28822,28.79367z" data-paper-data="{&quot;origPos&quot;:null}" fill="none" stroke="#000000" stroke-width="3.5" stroke-linecap="butt"/><g stroke-linecap="round"><g data-paper-data="{&quot;origPos&quot;:null}" fill="url(#color-1)" stroke="none" stroke-width="0"><path d="M184.47583,181.92181c0,0 12.3955,13.98026 10.16005,16.55711c-2.25735,2.60209 -21.83757,3.31849 -24.83567,0c-2.60666,-2.88523 8.65485,-15.80452 8.65485,-15.80452l0.08007,-5.38501l5.86253,0.09218z" data-paper-data="{&quot;origPos&quot;:null}"/></g><path d="M184.47583,175.90104v6.02077c0,0 12.3955,13.98026 10.16005,16.55711c-2.25735,2.60209 -21.83757,3.31849 -24.83567,0c-2.60666,-2.88523 8.65485,-15.80452 8.65485,-15.80452v-6.77336l-1.88149,-1.12889v-5.64447h9.78375l0.07729,4.95493z" data-paper-data="{&quot;origPos&quot;:null}" fill="none" stroke="#ffffff" stroke-width="2.5"/></g><path d="M188.456,161.30001c0,1.04934 -0.95274,1.9 -2.128,1.9c-1.17526,0 -2.128,-0.85066 -2.128,-1.9c0,-1.04934 0.95274,-1.9 2.128,-1.9c1.17526,0 2.128,0.85066 2.128,1.9z" data-paper-data="{&quot;origPos&quot;:null}" fill="#ffffff" stroke="none" stroke-width="NaN" stroke-linecap="butt"/><path d="M180.8,159.40001c0,0.99411 -0.88648,1.8 -1.98,1.8c-1.09352,0 -1.98,-0.80589 -1.98,-1.8c0,-0.99411 0.88648,-1.8 1.98,-1.8c1.09352,0 1.98,0.80589 1.98,1.8z" data-paper-data="{&quot;origPos&quot;:null}" fill="#ffffff" stroke="none" stroke-width="0" stroke-linecap="butt"/><path d="M186.4,156.50001c0,0.71797 -0.76112,1.3 -1.7,1.3c-0.93888,0 -1.7,-0.58203 -1.7,-1.3c0,-0.71797 0.76112,-1.3 1.7,-1.3c0.93888,0 1.7,0.58203 1.7,1.3z" fill="#ffffff" stroke="none" stroke-width="0" stroke-linecap="butt"/><path d="M192.4,157.30001c0,0.82843 -0.6268,1.5 -1.4,1.5c-0.7732,0 -1.4,-0.67157 -1.4,-1.5c0,-0.82843 0.6268,-1.5 1.4,-1.5c0.7732,0 1.4,0.67157 1.4,1.5z" fill="#ffffff" stroke="none" stroke-width="0" stroke-linecap="butt"/><path d="M180,165.70001c0,0.93888 -0.89543,1.7 -2,1.7c-1.10457,0 -2,-0.76112 -2,-1.7c0,-0.93888 0.89543,-1.7 2,-1.7c1.10457,0 2,0.76112 2,1.7z" fill="#ffffff" stroke="none" stroke-width="0" stroke-linecap="butt"/><path d="M185.2,166.60001c0,0.55228 -0.49249,1 -1.1,1c-0.60751,0 -1.1,-0.44772 -1.1,-1c0,-0.55228 0.49249,-1 1.1,-1c0.60751,0 1.1,0.44772 1.1,1z" fill="#ffffff" stroke="none" stroke-width="0" stroke-linecap="butt"/><path d="M183.32,163.40001c0,0.7732 -0.68948,1.4 -1.54,1.4c-0.85052,0 -1.54,-0.6268 -1.54,-1.4c0,-0.7732 0.68948,-1.4 1.54,-1.4c0.85052,0 1.54,0.6268 1.54,1.4z" data-paper-data="{&quot;origPos&quot;:null}" fill="#ffffff" stroke="none" stroke-width="0" stroke-linecap="butt"/></g></g></svg>