<svg version="1.1" xmlns="http://www.w3.org/2000/svg" xmlns:xlink="http://www.w3.org/1999/xlink" width="217.37499" height="76.56354" viewBox="0,0,217.37499,76.56354"><defs><radialGradient cx="162.5961" cy="178.65965" r="33.17092" gradientUnits="userSpaceOnUse" id="color-1"><stop offset="0" stop-color="#979797"/><stop offset="1" stop-color="#666666"/></radialGradient></defs><g transform="translate(-129.85001,-145.2685)"><g data-paper-data="{&quot;isPaintingLayer&quot;:true}" fill-rule="nonzero" stroke-linejoin="miter" stroke-miterlimit="10" stroke-dasharray="" stroke-dashoffset="0" style="mix-blend-mode: normal"><path d="M180.38901,210.78069v-60.78999c0,0 141.00958,0 154.93874,0c7.20669,0 11.89725,3.166 11.89725,12.02469c0,14.00683 0,21.88394 0,35.89077c0,8.86989 -3.60415,12.87453 -12.21771,12.87453c-14.30436,0 -154.61828,0 -154.61828,0z" data-paper-data="{&quot;origPos&quot;:null}" fill="#000000" stroke="none" stroke-width="0" stroke-linecap="butt"/><path d="M197.15673,180.18942c0,18.31979 -14.67538,33.17092 -32.77836,33.17092c-18.10299,0 -32.77836,-14.85113 -32.77836,-33.17092c0,-18.31979 14.67538,-33.17092 32.77836,-33.17092c18.10299,0 32.77836,14.85113 32.77836,33.17092z" data-paper-data="{&quot;origPos&quot;:null}" fill="url(#color-1)" stroke="#000000" stroke-width="3.5" stroke-linecap="butt"/><text transform="translate(199.90724,168.06035) scale(0.40867,0.40867)" font-size="40" xml:space="preserve" data-paper-data="{&quot;origPos&quot;:null}" fill="#ffffff" fill-rule="nonzero" stroke="none" stroke-width="1" stroke-linecap="butt" stroke-linejoin="miter" stroke-miterlimit="10" stroke-dasharray="" stroke-dashoffset="0" font-family="Sans Serif" font-weight="normal" text-anchor="start" style="mix-blend-mode: normal"><tspan x="0" dy="0">Nice Job!</tspan></text><text transform="translate(201.82997,181.38392) scale(0.24646,0.24646)" font-size="40" xml:space="preserve" data-paper-data="{&quot;origPos&quot;:null}" fill="#ffffff" fill-rule="nonzero" stroke="none" stroke-width="1" stroke-linecap="butt" stroke-linejoin="miter" stroke-miterlimit="10" stroke-dasharray="" stroke-dashoffset="0" font-family="Sans Serif" font-weight="normal" text-anchor="start" style="mix-blend-mode: normal"><tspan x="0" dy="0">Get 1,000 candy</tspan></text><g data-paper-data="{&quot;origPos&quot;:null}" stroke-linecap="butt"><path d="M198.01164,197.27545c37.96911,0 89.7537,0 97.68987,0c4.24032,0 6.37975,0.76819 6.37975,5.58228c0,1.37926 -0.17224,10.75061 -0.14088,12.1295c0.05113,2.24869 -1.07557,4.66689 -4.31946,4.76653c-6.86018,0.2107 -61.67399,1.68787 -100.60609,1.24637c-2.152,-0.02441 -4.38607,-2.73462 -4.18671,-5.78165c0.10667,-1.63043 0,-7.83833 0,-11.96202c0,-3.9291 1.16692,-5.98101 5.18354,-5.98101z" data-paper-data="{&quot;origPos&quot;:null,&quot;index&quot;:null}" fill="#000000" stroke="#ffffff" stroke-width="1.5"/><text transform="translate(197.21417,213.82292) scale(0.39874,0.39874)" font-size="40" xml:space="preserve" data-paper-data="{&quot;origPos&quot;:null}" fill="#ffffff" fill-rule="nonzero" stroke="none" stroke-width="3" stroke-linecap="butt" stroke-linejoin="miter" stroke-miterlimit="10" stroke-dasharray="" stroke-dashoffset="0" font-family="Sans Serif" font-weight="normal" text-anchor="start" style="mix-blend-mode: normal"><tspan x="0" dy="0">Achievement</tspan></text></g><g stroke-width="1.5" stroke-linecap="round"><path d="M156.64172,181.07905l-8.23606,-4.2764l-3.95963,-0.15838l-3.16771,-2.69256l3.95963,1.42546l3.80125,-0.31677l2.69256,0.31677" fill="#2fd700" stroke="#009e17"/><path d="M160.28458,185.19709l-10.61182,-12.03731l-4.75158,-13.46279l12.67085,3.16771l11.24539,9.02798c0,0 2.81746,7.63671 3.40873,8.6849c0.18585,0.32944 0.64187,3.61091 0.87838,5.38894c0.08957,0.67342 1.41477,2.39828 1.41477,2.39828" fill="#ffdc00" stroke="#9e9500"/><path d="M157.11687,197.07602l-0.95031,-5.38512l3.95963,-6.01865l9.97829,-0.95031l4.11804,4.11802l-1.90064,-9.66152c0,0 -3.58876,-7.23386 -4.43094,-12.03799c-0.57537,-3.28223 1.67394,-4.67784 1.67394,-4.67784c0,0 -0.73083,4.25342 -0.44884,4.57212c0.87569,0.98967 3.35687,6.54643 4.61748,6.63615c0.34504,0.02456 0.51402,-0.41727 0.68576,-1.29551c0.08516,-0.4356 0.17103,-0.8617 0.27939,-1.15865c0.4004,-1.09732 0.63255,-2.33334 0.63255,-2.33334l0.15841,6.81058l5.5435,7.91929l2.53417,7.76091l2.53417,3.48448l-5.38512,4.75158l-3.00933,-3.32612l-8.23604,-2.059l-5.06835,-4.27643z" fill="#2fd700" stroke="#009e17"/></g></g></g></svg>