<svg version="1.1" xmlns="http://www.w3.org/2000/svg" xmlns:xlink="http://www.w3.org/1999/xlink" width="217.37499" height="132.3052" viewBox="0,0,217.37499,132.3052"><defs><radialGradient cx="162.5961" cy="178.65965" r="33.17092" gradientUnits="userSpaceOnUse" id="color-1"><stop offset="0" stop-color="#979797"/><stop offset="1" stop-color="#666666"/></radialGradient><linearGradient x1="164.02909" y1="195.29943" x2="164.02909" y2="207.0744" gradientUnits="userSpaceOnUse" id="color-2"><stop offset="0" stop-color="#ff0000"/><stop offset="1" stop-color="#ffde00"/></linearGradient></defs><g transform="translate(-129.85001,-89.52684)"><g data-paper-data="{&quot;isPaintingLayer&quot;:true}" fill-rule="nonzero" stroke-linejoin="miter" stroke-miterlimit="10" stroke-dasharray="" stroke-dashoffset="0" style="mix-blend-mode: normal"><path d="M180.38901,210.78069v-60.78999c0,0 141.00958,0 154.93874,0c7.20669,0 11.89725,3.166 11.89725,12.02469c0,14.00683 0,21.88394 0,35.89077c0,8.86989 -3.60415,12.87453 -12.21771,12.87453c-14.30436,0 -154.61828,0 -154.61828,0z" data-paper-data="{&quot;origPos&quot;:null}" fill="#000000" stroke="none" stroke-width="0" stroke-linecap="butt"/><path d="M197.15673,180.18942c0,18.31979 -14.67538,33.17092 -32.77836,33.17092c-18.10299,0 -32.77836,-14.85113 -32.77836,-33.17092c0,-18.31979 14.67538,-33.17092 32.77836,-33.17092c18.10299,0 32.77836,14.85113 32.77836,33.17092z" data-paper-data="{&quot;origPos&quot;:null}" fill="url(#color-1)" stroke="#000000" stroke-width="3.5" stroke-linecap="butt"/><text transform="translate(199.90724,168.06035) scale(0.40867,0.40867)" font-size="40" xml:space="preserve" data-paper-data="{&quot;origPos&quot;:null}" fill="#ffffff" fill-rule="nonzero" stroke="none" stroke-width="1" stroke-linecap="butt" stroke-linejoin="miter" stroke-miterlimit="10" stroke-dasharray="" stroke-dashoffset="0" font-family="Sans Serif" font-weight="normal" text-anchor="start" style="mix-blend-mode: normal"><tspan x="0" dy="0">Space time</tspan></text><text transform="translate(201.82997,181.38392) scale(0.24646,0.24646)" font-size="40" xml:space="preserve" data-paper-data="{&quot;origPos&quot;:null}" fill="#ffffff" fill-rule="nonzero" stroke="none" stroke-width="1" stroke-linecap="butt" stroke-linejoin="miter" stroke-miterlimit="10" stroke-dasharray="" stroke-dashoffset="0" font-family="Sans Serif" font-weight="normal" text-anchor="start" style="mix-blend-mode: normal"><tspan x="0" dy="0">Buy your first Candy Rocket</tspan></text><g data-paper-data="{&quot;origPos&quot;:null}" stroke-linecap="butt"><path d="M198.01164,197.27545c37.96911,0 89.7537,0 97.68987,0c4.24032,0 6.37975,0.76819 6.37975,5.58228c0,1.37926 -0.17224,10.75061 -0.14088,12.1295c0.05113,2.24869 -1.07557,4.66689 -4.31946,4.76653c-6.86018,0.2107 -61.67399,1.68787 -100.60609,1.24637c-2.152,-0.02441 -4.38607,-2.73462 -4.18671,-5.78165c0.10667,-1.63043 0,-7.83833 0,-11.96202c0,-3.9291 1.16692,-5.98101 5.18354,-5.98101z" data-paper-data="{&quot;origPos&quot;:null,&quot;index&quot;:null}" fill="#000000" stroke="#ffffff" stroke-width="1.5"/><text transform="translate(197.21417,213.82292) scale(0.39874,0.39874)" font-size="40" xml:space="preserve" data-paper-data="{&quot;origPos&quot;:null}" fill="#ffffff" fill-rule="nonzero" stroke="none" stroke-width="3" stroke-linecap="butt" stroke-linejoin="miter" stroke-miterlimit="10" stroke-dasharray="" stroke-dashoffset="0" font-family="Sans Serif" font-weight="normal" text-anchor="start" style="mix-blend-mode: normal"><tspan x="0" dy="0">Achievement</tspan></text></g><text transform="translate(165.96525,111.27684) scale(0.5,0.5)" font-size="40" xml:space="preserve" fill="none" fill-rule="nonzero" stroke="none" stroke-width="1" stroke-linecap="butt" stroke-linejoin="miter" stroke-miterlimit="10" stroke-dasharray="" stroke-dashoffset="0" font-family="Sans Serif" font-weight="normal" text-anchor="start" style="mix-blend-mode: normal"><tspan x="0" dy="0">£1</tspan></text><g data-paper-data="{&quot;origPos&quot;:null}"><path d="M170.55524,195.29943l4.41408,6.46469l-3.93356,-0.92353l-2.70433,5.31028l-3.93356,-4.61764l-3.68772,5.54117l-2.45848,-6.46469l-5.16281,2.77058l0.6407,-7.56279" data-paper-data="{&quot;origPos&quot;:null}" fill="url(#color-2)" stroke="#d23b00" stroke-width="1.5" stroke-linecap="round"/><g data-paper-data="{&quot;origPos&quot;:null}" stroke-width="2.5" stroke-linecap="butt"><path d="M156.8362,186.65534v-24.40212h12.96777v24.40212z" data-paper-data="{&quot;origPos&quot;:null}" fill="#b2b2b2" stroke="#989898"/><path d="M153.37813,164.25888l10.37422,-10.02827l9.5097,10.02827z" data-paper-data="{&quot;origPos&quot;:null}" fill="#cacaca" stroke="#b1b1b1"/><path d="M153.8104,195.01223l3.02582,-8.69116h12.96777l3.45807,8.69116z" data-paper-data="{&quot;origPos&quot;:null}" fill="#5a5a5a" stroke="#454545"/></g></g><g stroke-width="1.5" stroke-linecap="round"><path d="M160.07787,175.68903l-1.52187,-5.12843l-1.51894,-1.70617l-0.15062,-2.3918l0.99325,2.21326l1.65269,1.45031l0.94614,1.24387" fill="#2fd700" stroke="#009e17"/><path d="M159.82724,178.84844l0.74723,-9.22002l3.68391,-7.35917l3.75665,6.52465l0.75485,8.27854c0,0 -2.0408,4.22514 -2.23905,4.88993c-0.0623,0.20895 -1.24123,1.71139 -1.88426,2.52108c-0.24355,0.30666 -0.42882,1.54676 -0.42882,1.54676" fill="#ffdc00" stroke="#9e9500"/><path d="M153.63114,182.28816l1.85389,-2.5494l4.08169,-0.76588l4.38759,3.75952l-0.06046,3.35654l3.24777,-4.65509c0,0 1.56499,-4.38392 3.2211,-6.65594c1.13148,-1.55226 2.61067,-1.17758 2.61067,-1.17758c0,0 -2.05715,1.39901 -2.07653,1.64355c-0.06015,0.75938 -1.37259,4.0126 -0.90531,4.57151c0.1279,0.15298 0.37883,0.04627 0.81193,-0.23395c0.2148,-0.139 0.42595,-0.2739 0.59252,-0.34778c0.6155,-0.27303 1.22121,-0.67137 1.22121,-0.67137l-2.76221,2.79132l-1.06707,5.46922l-2.2057,4.15731l-0.43148,2.44588l-4.12648,-0.33261l0.17562,-2.57964l-2.44182,-4.24101l-0.25414,-3.81421z" fill="#2fd700" stroke="#009e17"/></g></g></g></svg>