<svg version="1.1" xmlns="http://www.w3.org/2000/svg" xmlns:xlink="http://www.w3.org/1999/xlink" width="195.39471" height="76.98551" viewBox="0,0,195.39471,76.98551"><g transform="translate(-151.83031,-148.76324)"><g data-paper-data="{&quot;isPaintingLayer&quot;:true}" fill-rule="nonzero" stroke-linejoin="miter" stroke-miterlimit="10" stroke-dasharray="" stroke-dashoffset="0" style="mix-blend-mode: normal"><path d="M180.38903,210.78074v-60.78999c0,0 141.00958,0 154.93874,0c7.20669,0 11.89725,3.166 11.89725,12.02469c0,14.00683 0,21.88394 0,35.89077c0,8.86989 -3.60415,12.87453 -12.21771,12.87453c-14.30436,0 -154.61828,0 -154.61828,0z" data-paper-data="{&quot;origPos&quot;:null}" fill="#000000" stroke="none" stroke-width="0" stroke-linecap="butt"/><path d="M210.15675,180.51482c0,15.9023 -12.66508,28.79367 -28.28822,28.79367c-15.62316,0 -28.28822,-12.89137 -28.28822,-28.79367c0,-15.9023 12.66508,-28.79367 28.28822,-28.79367c15.62316,0 28.28822,12.89137 28.28822,28.79367z" data-paper-data="{&quot;origPos&quot;:null}" fill="#88f7ff" stroke="none" stroke-width="0" stroke-linecap="butt"/><text transform="translate(212.00002,169.47055) scale(0.47603,0.47603)" font-size="40" xml:space="preserve" data-paper-data="{&quot;origPos&quot;:null}" fill="#ffffff" fill-rule="nonzero" stroke="none" stroke-width="1" stroke-linecap="butt" stroke-linejoin="miter" stroke-miterlimit="10" stroke-dasharray="" stroke-dashoffset="0" font-family="Sans Serif" font-weight="normal" text-anchor="start" style="mix-blend-mode: normal"><tspan x="0" dy="0">Candy Man</tspan></text><text transform="translate(213.50002,182.8154) scale(0.22983,0.22983)" font-size="40" xml:space="preserve" data-paper-data="{&quot;origPos&quot;:null}" fill="#ffffff" fill-rule="nonzero" stroke="none" stroke-width="1" stroke-linecap="butt" stroke-linejoin="miter" stroke-miterlimit="10" stroke-dasharray="" stroke-dashoffset="0" font-family="Sans Serif" font-weight="normal" text-anchor="start" style="mix-blend-mode: normal"><tspan x="0" dy="0">Increases Corn per second</tspan><tspan x="0" dy="46.150000000000006px">by 5 billion Corn.</tspan></text><path d="M208.01166,201.19216c37.96911,0 89.7537,0 97.68987,0c4.24032,0 6.37975,0.76819 6.37975,5.58228c0,1.37926 -0.17224,10.75061 -0.14088,12.1295c0.05113,2.24869 -1.07557,4.66689 -4.31946,4.76653c-6.86018,0.2107 -61.67399,1.68787 -100.60609,1.24637c-2.152,-0.02441 -4.38607,-2.73462 -4.18671,-5.78165c0.10667,-1.63043 0,-7.83833 0,-11.96202c0,-3.9291 1.16692,-5.98101 5.18354,-5.98101z" data-paper-data="{&quot;origPos&quot;:null,&quot;index&quot;:null}" fill="#000000" stroke="#ffffff" stroke-width="1.5" stroke-linecap="butt"/><text transform="translate(215.71417,217.44796) scale(0.34666,0.34666)" font-size="40" xml:space="preserve" data-paper-data="{&quot;origPos&quot;:null}" fill="#ffffff" fill-rule="nonzero" stroke="none" stroke-width="3" stroke-linecap="butt" stroke-linejoin="miter" stroke-miterlimit="10" stroke-dasharray="" stroke-dashoffset="0" font-family="Sans Serif" font-weight="normal" text-anchor="start" style="mix-blend-mode: normal"><tspan x="0" dy="0">Buy for 100B</tspan></text><path d="M166,202c0,0 -0.32663,-8.7985 16.5,-8.5c16.94405,0.30058 17.5,8.5 17.5,8.5c0,0 -9.83435,7.94536 -18.5,6.5c-14.43005,-2.4068 -15.5,-6.5 -15.5,-6.5z" data-paper-data="{&quot;origPos&quot;:null}" fill="#fff300" stroke="#c2b900" stroke-width="3" stroke-linecap="round"/><path d="M210.15675,180.51482c0,15.9023 -12.66508,28.79367 -28.28822,28.79367c-15.62316,0 -28.28822,-12.89137 -28.28822,-28.79367c0,-15.9023 12.66508,-28.79367 28.28822,-28.79367c15.62316,0 28.28822,12.89137 28.28822,28.79367z" data-paper-data="{&quot;origPos&quot;:null}" fill="none" stroke="#000000" stroke-width="3.5" stroke-linecap="butt"/><g data-paper-data="{&quot;origPos&quot;:null,&quot;origRot&quot;:0}" fill="none" stroke="#ffffff" stroke-width="4.5" stroke-linecap="round"><g data-paper-data="{&quot;origPos&quot;:null}"><path d="M188.19808,178.11471l12.64913,-6.81224" data-paper-data="{&quot;origPos&quot;:null}"/><path d="M163.66744,192.42937l14.19075,-8.0637" data-paper-data="{&quot;origPos&quot;:null}"/></g><path d="M188.46932,184.20265l12.93406,6.25438" data-paper-data="{&quot;origPos&quot;:null}"/><path d="M162.00824,171.86895l14.85165,6.76971" data-paper-data="{&quot;origPos&quot;:null}"/><path d="M182.94855,160.61937l0.2557,15.91601" data-paper-data="{&quot;origPos&quot;:null}"/></g><path d="M195.66102,181.75c0,6.76549 -5.85634,12.25 -13.0805,12.25c-7.22416,0 -13.08051,-5.48451 -13.08051,-12.25c0,-6.76549 5.85635,-12.25 13.08051,-12.25c7.22416,0 13.0805,5.48451 13.0805,12.25z" data-paper-data="{&quot;origPos&quot;:null}" fill="#fff300" stroke="#c2b900" stroke-width="3" stroke-linecap="butt"/><g stroke-width="1.5" stroke-linecap="round"><path d="M178.74422,183.27664l-3.84092,-1.99432l-1.84659,-0.07386l-1.47727,-1.25569l1.84659,0.66477l1.77273,-0.14773l1.25569,0.14773" fill="#2fd700" stroke="#009e17"/><path d="M180.44309,185.1971l-4.94886,-5.61364l-2.21592,-6.27842l5.9091,1.47727l5.24433,4.21023c0,0 1.31393,3.56141 1.58967,4.05024c0.08667,0.15364 0.29934,1.68396 0.40964,2.51315c0.04177,0.31405 0.65978,1.11845 0.65978,1.11845" fill="#ffdc00" stroke="#9e9500"/><path d="M178.96581,190.73689l-0.44318,-2.51137l1.84659,-2.80682l4.65341,-0.44318l1.92046,1.92045l-0.88637,-4.50569c0,0 -1.67363,-3.37354 -2.06639,-5.61396c-0.26833,-1.53068 0.78065,-2.18153 0.78065,-2.18153c0,0 -0.34083,1.9836 -0.20932,2.13223c0.40838,0.46154 1.56549,3.05295 2.15338,3.09479c0.16091,0.01145 0.23972,-0.1946 0.31981,-0.60417c0.03971,-0.20314 0.07976,-0.40186 0.13029,-0.54034c0.18673,-0.51174 0.29499,-1.08816 0.29499,-1.08816l0.07388,3.17614l2.58523,3.69319l1.18182,3.61933l1.18182,1.625l-2.51137,2.21592l-1.40341,-1.55115l-3.84091,-0.96022l-2.36364,-1.99433z" fill="#2fd700" stroke="#009e17"/></g></g></g></svg>