<svg version="1.1" xmlns="http://www.w3.org/2000/svg" xmlns:xlink="http://www.w3.org/1999/xlink" width="195.39471" height="76.98551" viewBox="0,0,195.39471,76.98551"><defs><linearGradient x1="183.02226" y1="194.12909" x2="183.02226" y2="204.37909" gradientUnits="userSpaceOnUse" id="color-1"><stop offset="0" stop-color="#ff0000"/><stop offset="1" stop-color="#ffde00"/></linearGradient></defs><g transform="translate(-151.83031,-148.76325)"><g data-paper-data="{&quot;isPaintingLayer&quot;:true}" fill-rule="nonzero" stroke-linejoin="miter" stroke-miterlimit="10" stroke-dasharray="" stroke-dashoffset="0" style="mix-blend-mode: normal"><path d="M180.38903,210.78074v-60.78999c0,0 141.00958,0 154.93874,0c7.20669,0 11.89725,3.166 11.89725,12.02469c0,14.00683 0,21.88394 0,35.89077c0,8.86989 -3.60415,12.87453 -12.21771,12.87453c-14.30436,0 -154.61828,0 -154.61828,0z" data-paper-data="{&quot;origPos&quot;:null}" fill="#000000" stroke="none" stroke-width="0" stroke-linecap="butt"/><path d="M210.15675,180.51482c0,15.9023 -12.66508,28.79367 -28.28822,28.79367c-15.62316,0 -28.28822,-12.89137 -28.28822,-28.79367c0,-15.9023 12.66508,-28.79367 28.28822,-28.79367c15.62316,0 28.28822,12.89137 28.28822,28.79367z" data-paper-data="{&quot;origPos&quot;:null}" fill="#88f7ff" stroke="none" stroke-width="0" stroke-linecap="butt"/><text transform="translate(212.00002,169.47055) scale(0.47603,0.47603)" font-size="40" xml:space="preserve" data-paper-data="{&quot;origPos&quot;:null}" fill="#ffffff" fill-rule="nonzero" stroke="none" stroke-width="1" stroke-linecap="butt" stroke-linejoin="miter" stroke-miterlimit="10" stroke-dasharray="" stroke-dashoffset="0" font-family="Sans Serif" font-weight="normal" text-anchor="start" style="mix-blend-mode: normal"><tspan x="0" dy="0">Corn Rocket</tspan></text><text transform="translate(213.50002,182.8154) scale(0.22983,0.22983)" font-size="40" xml:space="preserve" data-paper-data="{&quot;origPos&quot;:null}" fill="#ffffff" fill-rule="nonzero" stroke="none" stroke-width="1" stroke-linecap="butt" stroke-linejoin="miter" stroke-miterlimit="10" stroke-dasharray="" stroke-dashoffset="0" font-family="Sans Serif" font-weight="normal" text-anchor="start" style="mix-blend-mode: normal"><tspan x="0" dy="0">Increases Corn per second</tspan><tspan x="0" dy="46.150000000000006px">by 100 million Corn.</tspan></text><path d="M208.01166,201.19216c37.96911,0 89.7537,0 97.68987,0c4.24032,0 6.37975,0.76819 6.37975,5.58228c0,1.37926 -0.17224,10.75061 -0.14088,12.1295c0.05113,2.24869 -1.07557,4.66689 -4.31946,4.76653c-6.86018,0.2107 -61.67399,1.68787 -100.60609,1.24637c-2.152,-0.02441 -4.38607,-2.73462 -4.18671,-5.78165c0.10667,-1.63043 0,-7.83833 0,-11.96202c0,-3.9291 1.16692,-5.98101 5.18354,-5.98101z" data-paper-data="{&quot;origPos&quot;:null,&quot;index&quot;:null}" fill="#000000" stroke="#ffffff" stroke-width="1.5" stroke-linecap="butt"/><text transform="translate(221.04752,217.44796) scale(0.34666,0.34666)" font-size="40" xml:space="preserve" data-paper-data="{&quot;origPos&quot;:null}" fill="#ffffff" fill-rule="nonzero" stroke="none" stroke-width="3" stroke-linecap="butt" stroke-linejoin="miter" stroke-miterlimit="10" stroke-dasharray="" stroke-dashoffset="0" font-family="Sans Serif" font-weight="normal" text-anchor="start" style="mix-blend-mode: normal"><tspan x="0" dy="0">Buy for 5B</tspan></text><path d="M210.15675,180.51482c0,15.9023 -12.66508,28.79367 -28.28822,28.79367c-15.62316,0 -28.28822,-12.89137 -28.28822,-28.79367c0,-15.9023 12.66508,-28.79367 28.28822,-28.79367c15.62316,0 28.28822,12.89137 28.28822,28.79367z" data-paper-data="{&quot;origPos&quot;:null}" fill="none" stroke="#000000" stroke-width="3.5" stroke-linecap="butt"/><g><path d="M187.94361,194.12909l3.32865,5.62745l-2.96629,-0.80392l-2.03933,4.62255l-2.96629,-4.01961l-2.7809,4.82353l-1.85393,-5.62745l-3.89326,2.41176l0.48315,-6.58333" data-paper-data="{&quot;origPos&quot;:null}" fill="url(#color-1)" stroke="#d23b00" stroke-width="1.5" stroke-linecap="round"/><g data-paper-data="{&quot;origPos&quot;:null}" stroke-width="2.5" stroke-linecap="butt"><path d="M177.59812,186.6045v-21.2418h9.77896v21.2418z" data-paper-data="{&quot;origPos&quot;:null}" fill="#b2b2b2" stroke="#989898"/><path d="M174.9904,167.1086l7.82317,-8.72951l7.17124,8.72951z" data-paper-data="{&quot;origPos&quot;:null}" fill="#cacaca" stroke="#b1b1b1"/><path d="M175.31637,193.87909l2.28176,-7.56557h9.77896l2.60772,7.56557z" data-paper-data="{&quot;origPos&quot;:null}" fill="#5a5a5a" stroke="#454545"/></g></g><g stroke-width="1.5" stroke-linecap="round"><path d="M179.62125,177.40606l-1.44965,-4.58087l-1.39165,-1.50762l-0.17395,-2.14547l0.92777,1.97151l1.50763,1.27568l0.86979,1.10173" fill="#2fd700" stroke="#009e17"/><path d="M179.44728,180.24736l0.52188,-8.29195l3.18921,-6.66836l3.47914,5.79857l0.8118,7.42217c0,0 -1.76435,3.82732 -1.93163,4.42753c-0.05257,0.18865 -1.08698,1.55696 -1.65134,2.29449c-0.21375,0.27933 -0.36007,1.39597 -0.36007,1.39597" fill="#ffdc00" stroke="#9e9500"/><path d="M173.93864,183.43658l1.6236,-2.31943l3.65309,-0.75382l4.00101,3.30518l0.00001,3.01526l2.84129,-4.23296c0,0 1.33449,-3.96221 2.78498,-6.02935c0.99099,-1.41228 2.32542,-1.09974 2.32542,-1.09974c0,0 -1.82476,1.28964 -1.8382,1.50955c-0.04173,0.68292 -1.16771,3.62564 -0.73904,4.12c0.11733,0.13531 0.34095,0.03542 0.72535,-0.22323c0.19065,-0.1283 0.37809,-0.25286 0.52647,-0.3219c0.54832,-0.25515 1.08583,-0.62267 1.08583,-0.62267l-2.43539,2.55138l-0.86979,4.92879l-1.91353,3.76908l-0.34791,2.20345l-3.71109,-0.23194l0.11598,-2.31944l-2.26144,-3.76906l-0.28993,-3.42117z" fill="#2fd700" stroke="#009e17"/></g></g></g></svg>