<svg version="1.1" xmlns="http://www.w3.org/2000/svg" xmlns:xlink="http://www.w3.org/1999/xlink" width="195.39471" height="77.16537" viewBox="0,0,195.39471,77.16537"><g transform="translate(-151.83031,-148.58336)"><g data-paper-data="{&quot;isPaintingLayer&quot;:true}" fill-rule="nonzero" stroke-linejoin="miter" stroke-miterlimit="10" stroke-dasharray="" stroke-dashoffset="0" style="mix-blend-mode: normal"><path d="M180.38903,210.78072v-60.78999c0,0 141.00958,0 154.93874,0c7.20669,0 11.89725,3.166 11.89725,12.02469c0,14.00683 0,21.88394 0,35.89077c0,8.86989 -3.60415,12.87453 -12.21771,12.87453c-14.30436,0 -154.61828,0 -154.61828,0z" data-paper-data="{&quot;origPos&quot;:null}" fill="#000000" stroke="none" stroke-width="0" stroke-linecap="butt"/><path d="M210.15675,180.5148c0,15.9023 -12.66508,28.79367 -28.28822,28.79367c-15.62316,0 -28.28822,-12.89137 -28.28822,-28.79367c0,-15.9023 12.66508,-28.79367 28.28822,-28.79367c15.62316,0 28.28822,12.89137 28.28822,28.79367z" data-paper-data="{&quot;origPos&quot;:null}" fill="#78e7ef" stroke="none" stroke-width="0" stroke-linecap="butt"/><text transform="translate(212.00002,170.33336) scale(0.5,0.5)" font-size="40" xml:space="preserve" data-paper-data="{&quot;origPos&quot;:null}" fill="#ffffff" fill-rule="nonzero" stroke="none" stroke-width="1" stroke-linecap="butt" stroke-linejoin="miter" stroke-miterlimit="10" stroke-dasharray="" stroke-dashoffset="0" font-family="Sans Serif" font-weight="normal" text-anchor="start" style="mix-blend-mode: normal"><tspan x="0" dy="0">Cursor</tspan></text><text transform="translate(213.50002,182.81538) scale(0.22983,0.22983)" font-size="40" xml:space="preserve" data-paper-data="{&quot;origPos&quot;:null}" fill="#ffffff" fill-rule="nonzero" stroke="none" stroke-width="1" stroke-linecap="butt" stroke-linejoin="miter" stroke-miterlimit="10" stroke-dasharray="" stroke-dashoffset="0" font-family="Sans Serif" font-weight="normal" text-anchor="start" style="mix-blend-mode: normal"><tspan x="0" dy="0">Increases click power by 1</tspan><tspan x="0" dy="46.150000000000006px">corn.</tspan></text><path d="M210.15675,180.5148c0,15.9023 -12.66508,28.79367 -28.28822,28.79367c-15.62316,0 -28.28822,-12.89137 -28.28822,-28.79367c0,-15.9023 12.66508,-28.79367 28.28822,-28.79367c15.62316,0 28.28822,12.89137 28.28822,28.79367z" data-paper-data="{&quot;origPos&quot;:null}" fill="none" stroke="#000000" stroke-width="3.5" stroke-linecap="butt"/><path d="M208.01166,201.19214c37.96911,0 89.7537,0 97.68987,0c4.24032,0 6.37975,0.76819 6.37975,5.58228c0,1.37926 -0.17224,10.75061 -0.14088,12.1295c0.05113,2.24869 -1.07557,4.66689 -4.31946,4.76653c-6.86018,0.2107 -61.67399,1.68787 -100.60609,1.24637c-2.152,-0.02441 -4.38607,-2.73462 -4.18671,-5.78165c0.10667,-1.63043 0,-7.83833 0,-11.96202c0,-3.9291 1.16692,-5.98101 5.18354,-5.98101z" data-paper-data="{&quot;origPos&quot;:null,&quot;index&quot;:null}" fill="#000000" stroke="#ffffff" stroke-width="1.5" stroke-linecap="butt"/><text transform="translate(223.04752,217.44794) scale(0.34666,0.34666)" font-size="40" xml:space="preserve" data-paper-data="{&quot;origPos&quot;:null}" fill="#ffffff" fill-rule="nonzero" stroke="none" stroke-width="3" stroke-linecap="butt" stroke-linejoin="miter" stroke-miterlimit="10" stroke-dasharray="" stroke-dashoffset="0" font-family="Sans Serif" font-weight="normal" text-anchor="start" style="mix-blend-mode: normal"><tspan x="0" dy="0">Buy for 25</tspan></text><g data-paper-data="{&quot;origPos&quot;:null}" stroke-width="2" stroke-linecap="round"><path d="M176.08724,195.75366c-1.65004,-0.12549 -6.93325,-24.10951 -5.12047,-25.42175c1.56911,-1.13585 22.42399,10.94473 22.30652,12.96055c-0.11058,1.89758 -9.19933,0.6786 -9.14413,1.09467c0.06645,0.50085 6.46575,4.47156 6.57783,5.49516c0.11693,1.06791 -4.47598,4.98234 -5.66272,4.77782c-0.81696,-0.1408 -4.77927,-6.85013 -5.25286,-6.82316c-0.63895,0.03638 -2.01538,8.04517 -3.70417,7.91672z" data-paper-data="{&quot;origPos&quot;:null,&quot;origRot&quot;:0}" fill="#a0a0a0" stroke="#a0a0a0"/><path d="M177.19748,193.34589c-1.65004,-0.12549 -6.93325,-24.10951 -5.12047,-25.42175c1.56911,-1.13585 22.42399,10.94473 22.30652,12.96055c-0.11058,1.89758 -9.19933,0.6786 -9.14413,1.09467c0.06645,0.50085 6.46575,4.47156 6.57783,5.49516c0.11693,1.06791 -4.47598,4.98234 -5.66272,4.77782c-0.81696,-0.1408 -4.77927,-6.85013 -5.25286,-6.82316c-0.63895,0.03638 -2.01538,8.04517 -3.70417,7.91672z" data-paper-data="{&quot;origPos&quot;:null,&quot;origRot&quot;:0}" fill="#ffffff" stroke="#c9c9c9"/></g></g></g></svg>