<svg version="1.1" xmlns="http://www.w3.org/2000/svg" xmlns:xlink="http://www.w3.org/1999/xlink" width="195.39471" height="76.98551" viewBox="0,0,195.39471,76.98551"><defs><radialGradient cx="182.04439" cy="175.68564" r="13.75155" gradientUnits="userSpaceOnUse" id="color-1"><stop offset="0" stop-color="#ffffff"/><stop offset="1" stop-color="#ffffff" stop-opacity="0"/></radialGradient><linearGradient x1="181.9522" y1="175.24" x2="199.66668" y2="175.24" gradientUnits="userSpaceOnUse" id="color-2"><stop offset="0" stop-color="#ffffff"/><stop offset="1" stop-color="#ffffff" stop-opacity="0"/></linearGradient><linearGradient x1="182.00239" y1="175.31504" x2="164.2879" y2="175.31504" gradientUnits="userSpaceOnUse" id="color-3"><stop offset="0" stop-color="#ffffff"/><stop offset="1" stop-color="#ffffff" stop-opacity="0"/></linearGradient><linearGradient x1="182.00053" y1="175.23943" x2="190.50631" y2="190.77823" gradientUnits="userSpaceOnUse" id="color-4"><stop offset="0" stop-color="#ffffff"/><stop offset="1" stop-color="#ffffff" stop-opacity="0"/></linearGradient><linearGradient x1="181.95879" y1="175.31947" x2="173.45302" y2="159.78067" gradientUnits="userSpaceOnUse" id="color-5"><stop offset="0" stop-color="#ffffff"/><stop offset="1" stop-color="#ffffff" stop-opacity="0"/></linearGradient><linearGradient x1="181.9347" y1="175.23943" x2="173.42893" y2="190.77824" gradientUnits="userSpaceOnUse" id="color-6"><stop offset="0" stop-color="#ffffff"/><stop offset="1" stop-color="#ffffff" stop-opacity="0"/></linearGradient><linearGradient x1="181.97644" y1="175.31947" x2="190.48222" y2="159.78067" gradientUnits="userSpaceOnUse" id="color-7"><stop offset="0" stop-color="#ffffff"/><stop offset="1" stop-color="#ffffff" stop-opacity="0"/></linearGradient></defs><g transform="translate(-151.83031,-148.76325)"><g data-paper-data="{&quot;isPaintingLayer&quot;:true}" fill-rule="nonzero" stroke-linejoin="miter" stroke-miterlimit="10" stroke-dasharray="" stroke-dashoffset="0" style="mix-blend-mode: normal"><path d="M180.38903,210.78074v-60.78999c0,0 141.00958,0 154.93874,0c7.20669,0 11.89725,3.166 11.89725,12.02469c0,14.00683 0,21.88394 0,35.89077c0,8.86989 -3.60415,12.87453 -12.21771,12.87453c-14.30436,0 -154.61828,0 -154.61828,0z" data-paper-data="{&quot;origPos&quot;:null}" fill="#000000" stroke="none" stroke-width="0" stroke-linecap="butt"/><path d="M210.15675,180.51482c0,15.9023 -12.66508,28.79367 -28.28822,28.79367c-15.62316,0 -28.28822,-12.89137 -28.28822,-28.79367c0,-15.9023 12.66508,-28.79367 28.28822,-28.79367c15.62316,0 28.28822,12.89137 28.28822,28.79367z" data-paper-data="{&quot;origPos&quot;:null}" fill="#88f7ff" stroke="none" stroke-width="0" stroke-linecap="butt"/><text transform="translate(212.00002,169.47055) scale(0.47603,0.47603)" font-size="40" xml:space="preserve" data-paper-data="{&quot;origPos&quot;:null}" fill="#ffffff" fill-rule="nonzero" stroke="none" stroke-width="1" stroke-linecap="butt" stroke-linejoin="miter" stroke-miterlimit="10" stroke-dasharray="" stroke-dashoffset="0" font-family="Sans Serif" font-weight="normal" text-anchor="start" style="mix-blend-mode: normal"><tspan x="0" dy="0">Corn Temple</tspan></text><text transform="translate(213.50002,182.8154) scale(0.22983,0.22983)" font-size="40" xml:space="preserve" data-paper-data="{&quot;origPos&quot;:null}" fill="#ffffff" fill-rule="nonzero" stroke="none" stroke-width="1" stroke-linecap="butt" stroke-linejoin="miter" stroke-miterlimit="10" stroke-dasharray="" stroke-dashoffset="0" font-family="Sans Serif" font-weight="normal" text-anchor="start" style="mix-blend-mode: normal"><tspan x="0" dy="0">Increases Corn per second</tspan><tspan x="0" dy="46.150000000000006px">by 5 million corn.</tspan></text><path d="M208.01166,201.19216c37.96911,0 89.7537,0 97.68987,0c4.24032,0 6.37975,0.76819 6.37975,5.58228c0,1.37926 -0.17224,10.75061 -0.14088,12.1295c0.05113,2.24869 -1.07557,4.66689 -4.31946,4.76653c-6.86018,0.2107 -61.67399,1.68787 -100.60609,1.24637c-2.152,-0.02441 -4.38607,-2.73462 -4.18671,-5.78165c0.10667,-1.63043 0,-7.83833 0,-11.96202c0,-3.9291 1.16692,-5.98101 5.18354,-5.98101z" data-paper-data="{&quot;origPos&quot;:null,&quot;index&quot;:null}" fill="#000000" stroke="#ffffff" stroke-width="1.5" stroke-linecap="butt"/><text transform="translate(213.54752,217.44796) scale(0.34666,0.34666)" font-size="40" xml:space="preserve" data-paper-data="{&quot;origPos&quot;:null}" fill="#ffffff" fill-rule="nonzero" stroke="none" stroke-width="3" stroke-linecap="butt" stroke-linejoin="miter" stroke-miterlimit="10" stroke-dasharray="" stroke-dashoffset="0" font-family="Sans Serif" font-weight="normal" text-anchor="start" style="mix-blend-mode: normal"><tspan x="0" dy="0">Buy for 125M</tspan></text><path d="M179.57693,208.73889c-12.61752,0.45749 -18.96176,-9.99706 -18.96176,-9.99706l21.5,-24l18.5,26.5c0,0 -5.95271,6.95009 -21.03824,7.49706z" data-paper-data="{&quot;origPos&quot;:null}" fill="#efd55e" stroke="#c4ac41" stroke-width="3" stroke-linecap="round"/><path d="M210.15675,180.51482c0,15.9023 -12.66508,28.79367 -28.28822,28.79367c-15.62316,0 -28.28822,-12.89137 -28.28822,-28.79367c0,-15.9023 12.66508,-28.79367 28.28822,-28.79367c15.62316,0 28.28822,12.89137 28.28822,28.79367z" data-paper-data="{&quot;origPos&quot;:null}" fill="none" stroke="#000000" stroke-width="3.5" stroke-linecap="butt"/><path d="M175.61517,182.74183v-12.5h11.5v11.5" data-paper-data="{&quot;origPos&quot;:null}" fill="#efd55e" stroke="#c4ac41" stroke-width="3" stroke-linecap="round"/><g data-paper-data="{&quot;origPos&quot;:null}" stroke="none" stroke-width="0"><path d="M195.66374,175.68564c0,7.59478 -6.09758,13.75155 -13.61933,13.75155c-7.52175,0 -13.61934,-6.15679 -13.61934,-13.75155c0,-7.59478 6.09759,-13.75155 13.61934,-13.75155c7.52175,0 13.61933,6.15679 13.61933,13.75155z" data-paper-data="{&quot;origPos&quot;:null}" fill="url(#color-1)" stroke-linecap="butt"/><g data-paper-data="{&quot;origPos&quot;:null}" stroke-linecap="round"><path d="M199.66668,180.69748l-17.71448,-5.55103l17.6643,-5.36392" data-paper-data="{&quot;origPos&quot;:null}" fill="url(#color-2)"/><path d="M164.33809,169.85757l17.6643,5.36392l-17.71448,5.55103" data-paper-data="{&quot;origPos&quot;:null,&quot;index&quot;:null}" fill="url(#color-3)"/></g><g data-paper-data="{&quot;origPos&quot;:null,&quot;origRot&quot;:0}" stroke-linecap="round"><path d="M185.71912,193.3987l-3.63652,-18.20419l13.18681,12.91925" data-paper-data="{&quot;origPos&quot;:null}" fill="url(#color-4)"/><path d="M178.26431,157.20422l3.77655,18.07033l-13.37503,-12.87343" data-paper-data="{&quot;origPos&quot;:null,&quot;index&quot;:null}" fill="url(#color-5)"/></g><g data-paper-data="{&quot;origPos&quot;:null,&quot;origRot&quot;:0,&quot;index&quot;:null}" stroke-linecap="round"><path d="M168.66583,188.11376l13.18682,-12.91925l-3.63652,18.20418" data-paper-data="{&quot;origPos&quot;:null}" fill="url(#color-6)"/><path d="M195.26941,162.40112l-13.37503,12.87344l3.77656,-18.07032" data-paper-data="{&quot;origPos&quot;:null,&quot;index&quot;:null}" fill="url(#color-7)"/></g></g><g stroke-width="1.5" stroke-linecap="round"><path d="M176.0231,174.08487l-3.71883,-1.93092l-1.78789,-0.07151l-1.43032,-1.21577l1.78789,0.64364l1.71638,-0.14303l1.21577,0.14303" fill="#2fd700" stroke="#009e17"/><path d="M177.66796,175.94429l-4.79156,-5.43521l-2.14548,-6.07886l5.72127,1.43032l5.07763,4.07641c0,0 1.27217,3.44821 1.53914,3.9215c0.08392,0.14875 0.28982,1.63044 0.39662,2.43327c0.04044,0.30407 0.63881,1.0829 0.63881,1.0829" fill="#ffdc00" stroke="#9e9500"/><path d="M176.23764,181.30799l-0.42909,-2.43154l1.78789,-2.7176l4.5055,-0.42909l1.85942,1.85941l-0.8582,-4.36247c0,0 -1.62043,-3.26631 -2.0007,-5.43552c-0.2598,-1.48203 0.75583,-2.11219 0.75583,-2.11219c0,0 -0.32999,1.92055 -0.20266,2.06445c0.3954,0.44687 1.51573,2.95591 2.08493,2.99642c0.1558,0.01109 0.2321,-0.18841 0.30964,-0.58496c0.03845,-0.19669 0.07723,-0.38908 0.12615,-0.52317c0.18079,-0.49547 0.28562,-1.05357 0.28562,-1.05357l0.07153,3.07518l2.50306,3.5758l1.14425,3.50429l1.14425,1.57335l-2.43154,2.14548l-1.3588,-1.50184l-3.71882,-0.9297l-2.28851,-1.93094z" fill="#2fd700" stroke="#009e17"/></g></g></g></svg>