<svg version="1.1" xmlns="http://www.w3.org/2000/svg" xmlns:xlink="http://www.w3.org/1999/xlink" width="20.54298" height="17.62052" viewBox="0,0,20.54298,17.62052"><g transform="translate(-229.29057,-171.18749)"><g data-paper-data="{&quot;isPaintingLayer&quot;:true}" fill-rule="nonzero" stroke-width="0.5" stroke-linecap="round" stroke-linejoin="miter" stroke-miterlimit="10" stroke-dasharray="" stroke-dashoffset="0" style="mix-blend-mode: normal"><path d="M237.01314,180.60409l-3.49027,-1.81225l-1.67801,-0.06712l-1.34241,-1.14105l1.67801,0.60408l1.61089,-0.13424l1.14105,0.13424" fill="#2fd700" stroke="#009e17"/><path d="M238.55691,182.34922l-4.49707,-5.10116l-2.01361,-5.70525l5.36964,1.34241l4.76555,3.82587c0,0 1.19398,3.23628 1.44456,3.68048c0.07876,0.13961 0.27201,1.53023 0.37224,2.28372c0.03797,0.28538 0.59955,1.01634 0.59955,1.01634" fill="#ffdc00" stroke="#9e9500"/><path d="M237.2145,187.38326l-0.40272,-2.2821l1.67801,-2.55058l4.22859,-0.40272l1.74514,1.74513l-0.80545,-4.09435c0,0 -1.52084,-3.06556 -1.87774,-5.10145c-0.24383,-1.39094 0.70938,-1.98237 0.70938,-1.98237c0,0 -0.30971,1.80251 -0.19021,1.93757c0.3711,0.4194 1.42257,2.77424 1.95679,2.81226c0.14622,0.01041 0.21783,-0.17683 0.29061,-0.54901c0.03609,-0.1846 0.07247,-0.36517 0.11839,-0.49101c0.16968,-0.46502 0.26806,-0.98882 0.26806,-0.98882l0.06713,2.88618l2.34922,3.35603l1.07393,3.28891l1.07393,1.47665l-2.2821,2.01362l-1.27529,-1.40954l-3.49026,-0.87256l-2.14786,-1.81226z" fill="#2fd700" stroke="#009e17"/></g></g></svg>