<svg version="1.1" xmlns="http://www.w3.org/2000/svg" xmlns:xlink="http://www.w3.org/1999/xlink" width="217.37499" height="76.56354" viewBox="0,0,217.37499,76.56354"><defs><radialGradient cx="165.29141" cy="177.31199" r="33.17092" gradientUnits="userSpaceOnUse" id="color-1"><stop offset="0" stop-color="#979797"/><stop offset="1" stop-color="#666666"/></radialGradient></defs><g transform="translate(-129.85001,-145.2685)"><g data-paper-data="{&quot;isPaintingLayer&quot;:true}" fill-rule="nonzero" stroke-linejoin="miter" stroke-miterlimit="10" stroke-dasharray="" stroke-dashoffset="0" style="mix-blend-mode: normal"><path d="M180.38901,210.78069v-60.78999c0,0 141.00958,0 154.93874,0c7.20669,0 11.89725,3.166 11.89725,12.02469c0,14.00683 0,21.88394 0,35.89077c0,8.86989 -3.60415,12.87453 -12.21771,12.87453c-14.30436,0 -154.61828,0 -154.61828,0z" data-paper-data="{&quot;origPos&quot;:null}" fill="#000000" stroke="none" stroke-width="0" stroke-linecap="butt"/><path d="M197.15673,180.18942c0,18.31979 -14.67538,33.17092 -32.77836,33.17092c-18.10299,0 -32.77836,-14.85113 -32.77836,-33.17092c0,-18.31979 14.67538,-33.17092 32.77836,-33.17092c18.10299,0 32.77836,14.85113 32.77836,33.17092z" data-paper-data="{&quot;origPos&quot;:null}" fill="url(#color-1)" stroke="#000000" stroke-width="3.5" stroke-linecap="butt"/><text transform="translate(199.90724,168.40245) scale(0.38016,0.38016)" font-size="40" xml:space="preserve" data-paper-data="{&quot;origPos&quot;:null}" fill="#ffffff" fill-rule="nonzero" stroke="none" stroke-width="1" stroke-linecap="butt" stroke-linejoin="miter" stroke-miterlimit="10" stroke-dasharray="" stroke-dashoffset="0" font-family="Sans Serif" font-weight="normal" text-anchor="start" style="mix-blend-mode: normal"><tspan x="0" dy="0">So much gold!</tspan></text><text transform="translate(201.82997,181.38392) scale(0.24646,0.24646)" font-size="40" xml:space="preserve" data-paper-data="{&quot;origPos&quot;:null}" fill="#ffffff" fill-rule="nonzero" stroke="none" stroke-width="1" stroke-linecap="butt" stroke-linejoin="miter" stroke-miterlimit="10" stroke-dasharray="" stroke-dashoffset="0" font-family="Sans Serif" font-weight="normal" text-anchor="start" style="mix-blend-mode: normal"><tspan x="0" dy="0">Catch 10 golden candies</tspan></text><g data-paper-data="{&quot;origPos&quot;:null}" stroke-linecap="butt"><path d="M198.01164,197.27545c37.96911,0 89.7537,0 97.68987,0c4.24032,0 6.37975,0.76819 6.37975,5.58228c0,1.37926 -0.17224,10.75061 -0.14088,12.1295c0.05113,2.24869 -1.07557,4.66689 -4.31946,4.76653c-6.86018,0.2107 -61.67399,1.68787 -100.60609,1.24637c-2.152,-0.02441 -4.38607,-2.73462 -4.18671,-5.78165c0.10667,-1.63043 0,-7.83833 0,-11.96202c0,-3.9291 1.16692,-5.98101 5.18354,-5.98101z" data-paper-data="{&quot;origPos&quot;:null,&quot;index&quot;:null}" fill="#000000" stroke="#ffffff" stroke-width="1.5"/><text transform="translate(197.21417,213.82292) scale(0.39874,0.39874)" font-size="40" xml:space="preserve" data-paper-data="{&quot;origPos&quot;:null}" fill="#ffffff" fill-rule="nonzero" stroke="none" stroke-width="3" stroke-linecap="butt" stroke-linejoin="miter" stroke-miterlimit="10" stroke-dasharray="" stroke-dashoffset="0" font-family="Sans Serif" font-weight="normal" text-anchor="start" style="mix-blend-mode: normal"><tspan x="0" dy="0">Achievement</tspan></text></g><g fill="#ffdc00" stroke="#9e9500" stroke-width="0.5" stroke-linecap="round"><path d="M159.89515,186.8942l-10.61183,-12.03731l-4.75158,-13.46279l12.67085,3.16771l11.24539,9.02798c0,0 2.81746,7.63674 3.40873,8.6849c0.18585,0.32946 0.64187,3.61091 0.87838,5.38892c0.08957,0.67344 1.41477,2.39828 1.41477,2.39828"/><g><path d="M156.72743,198.77313l-0.95031,-5.38512l3.95963,-6.01866l9.97829,-0.95031l4.11804,4.11802l-1.90064,-9.66152c0,0 -3.58876,-7.23386 -4.43094,-12.038c-0.57537,-3.28221 1.67394,-4.67784 1.67394,-4.67784c0,0 -0.73083,4.25342 -0.44884,4.5721c0.87569,0.98967 3.35687,6.54643 4.61748,6.63617c0.34506,0.02456 0.51402,-0.41725 0.68576,-1.29553c0.08519,-0.4356 0.17103,-0.86168 0.27939,-1.15865c0.40037,-1.09732 0.63255,-2.33334 0.63255,-2.33334l0.15841,6.81058l5.54348,7.91929l2.53417,7.76091l2.53417,3.48448l-5.38512,4.75158l-3.00933,-3.32612l-8.23604,-2.059l-5.06835,-4.27643z"/><path d="M156.25228,182.77618l-8.23606,-4.2764l-3.95963,-0.15838l-3.16771,-2.69256l3.95963,1.42546l3.80125,-0.31677l2.69256,0.31677"/></g></g><g fill="#ffdc00" stroke="#9e9500" stroke-width="0.5" stroke-linecap="round"><path d="M171.17787,179.31856l5.09615,-9.31622l7.30437,-5.99173l0.88625,8.59731l-3.08107,9.03184c0,0 -4.11585,3.47479 -4.63463,4.07898c-0.16307,0.18991 -2.10177,1.21352 -3.15461,1.76157c-0.39878,0.20757 -1.17307,1.42095 -1.17307,1.42095"/><g><path d="M163.07325,180.02624l3.13603,-1.80546l4.63727,1.10636l2.84113,5.99363l-1.63346,3.49053l5.58227,-3.36094c0,0 3.69129,-3.8638 6.49025,-5.47099c1.91226,-1.09803 3.28771,-0.01333 3.28771,-0.01333c0,0 -2.81101,0.50438 -2.94569,0.75167c-0.41826,0.76795 -3.3159,3.56453 -3.08749,4.36904c0.06252,0.22021 0.37549,0.22571 0.96063,0.13452c0.29021,-0.04522 0.57465,-0.08789 0.78384,-0.08743c0.77296,0.00166 1.59429,-0.13258 1.59429,-0.13258l-4.20142,1.6342l-3.67697,5.23446l-4.25698,3.32654l-1.59643,2.36229l-4.17039,-2.27892l1.39077,-2.6222l-0.57607,-5.58824l1.51773,-4.11748z"/><path d="M172.91847,176.12365l0.80346,-6.08823l-0.79428,-2.49916l0.9609,-2.57788l0.00598,2.78486l1.05418,2.29349l0.41004,1.74658"/></g></g><g fill="#ffdc00" stroke="#9e9500" stroke-width="0.5" stroke-linecap="round"><path d="M155.42446,195.60376l-11.99982,-4.30994l-8.46763,-7.54843l10.03291,-2.65239l11.28722,1.97264c0,0 4.88825,4.23501 5.70155,4.73786c0.25564,0.15806 1.83088,2.26707 2.67704,3.41387c0.32048,0.43437 1.90397,1.12683 1.90397,1.12683"/><g><path d="M157.77329,205.08552l-2.72565,-3.38366l0.44872,-5.70669l6.58041,-4.48633l4.44461,1.28751l-5.02631,-5.99565c0,0 -5.27062,-3.65895 -7.69831,-6.67971c-1.6586,-2.0638 -0.62811,-3.89735 -0.62811,-3.89735c0,0 1.1218,3.24044 1.44022,3.35414c0.98883,0.35312 4.84572,3.26941 5.75748,2.84864c0.24957,-0.11518 0.19781,-0.48744 -0.01933,-1.16454c-0.10769,-0.33583 -0.21127,-0.66527 -0.24969,-0.91349c-0.14198,-0.91719 -0.45419,-1.86643 -0.45419,-1.86643l2.72091,4.6793l6.89382,3.38671l4.73868,4.43002l3.09942,1.45372l-1.92653,5.37125l-3.36942,-1.16135l-6.52138,1.72406l-5.16673,-1.03348z"/><path d="M151.31056,194.13411l-7.37138,0.18081l-2.81653,1.4076l-3.23679,-0.6597l3.30224,-0.52574l2.52417,-1.67758l1.99539,-0.81166"/></g></g></g></g></svg>