<svg version="1.1" xmlns="http://www.w3.org/2000/svg" xmlns:xlink="http://www.w3.org/1999/xlink" width="195.39471" height="77.16537" viewBox="0,0,195.39471,77.16537"><defs><linearGradient x1="163.335" y1="176.79168" x2="187.085" y2="176.79168" gradientUnits="userSpaceOnUse" id="color-1"><stop offset="0" stop-color="#392f14"/><stop offset="1" stop-color="#92721a"/></linearGradient></defs><g transform="translate(-151.83031,-148.58336)"><g data-paper-data="{&quot;isPaintingLayer&quot;:true}" fill-rule="nonzero" stroke-linejoin="miter" stroke-miterlimit="10" stroke-dasharray="" stroke-dashoffset="0" style="mix-blend-mode: normal"><path d="M180.38903,210.78072v-60.78999c0,0 141.00958,0 154.93874,0c7.20669,0 11.89725,3.166 11.89725,12.02469c0,14.00683 0,21.88394 0,35.89077c0,8.86989 -3.60415,12.87453 -12.21771,12.87453c-14.30436,0 -154.61828,0 -154.61828,0z" data-paper-data="{&quot;origPos&quot;:null}" fill="#000000" stroke="none" stroke-width="0" stroke-linecap="butt"/><path d="M210.15675,180.5148c0,15.9023 -12.66508,28.79367 -28.28822,28.79367c-15.62316,0 -28.28822,-12.89137 -28.28822,-28.79367c0,-15.9023 12.66508,-28.79367 28.28822,-28.79367c15.62316,0 28.28822,12.89137 28.28822,28.79367z" data-paper-data="{&quot;origPos&quot;:null}" fill="#78e7ef" stroke="none" stroke-width="0" stroke-linecap="butt"/><text transform="translate(212.00002,170.33336) scale(0.5,0.5)" font-size="40" xml:space="preserve" data-paper-data="{&quot;origPos&quot;:null}" fill="#ffffff" fill-rule="nonzero" stroke="none" stroke-width="1" stroke-linecap="butt" stroke-linejoin="miter" stroke-miterlimit="10" stroke-dasharray="" stroke-dashoffset="0" font-family="Sans Serif" font-weight="normal" text-anchor="start" style="mix-blend-mode: normal"><tspan x="0" dy="0">Candy mine</tspan></text><text transform="translate(213.50002,182.81538) scale(0.22983,0.22983)" font-size="40" xml:space="preserve" data-paper-data="{&quot;origPos&quot;:null}" fill="#ffffff" fill-rule="nonzero" stroke="none" stroke-width="1" stroke-linecap="butt" stroke-linejoin="miter" stroke-miterlimit="10" stroke-dasharray="" stroke-dashoffset="0" font-family="Sans Serif" font-weight="normal" text-anchor="start" style="mix-blend-mode: normal"><tspan x="0" dy="0">Increases corn per second</tspan><tspan x="0" dy="46.150000000000006px">by 100 corn.</tspan></text><path d="M180.51006,209.06459c-19.73166,0.47529 -26.26005,-23.06458 -26.26005,-23.06458c0,0 9.12272,-3.53419 23.03424,-3.76781c12.57899,-0.21124 31.21576,6.51781 31.21576,6.51781c0,0 -4.90184,20.34054 -27.98995,20.31458z" data-paper-data="{&quot;origPos&quot;:null}" fill="#a17e1d" stroke="#8c6e1b" stroke-width="3" stroke-linecap="round"/><path d="M154.335,186.91668c0,0 -2.26337,-14.23844 6.09992,-24.55377c9.21886,-11.3706 20.40008,-10.19499 20.40008,-10.19499l8.25,33.19284" data-paper-data="{&quot;origPos&quot;:null}" fill="#a17e1d" stroke="#8c6e1b" stroke-width="3" stroke-linecap="round"/><path d="M210.15675,180.5148c0,15.9023 -12.66508,28.79367 -28.28822,28.79367c-15.62316,0 -28.28822,-12.89137 -28.28822,-28.79367c0,-15.9023 12.66508,-28.79367 28.28822,-28.79367c15.62316,0 28.28822,12.89137 28.28822,28.79367z" data-paper-data="{&quot;origPos&quot;:null}" fill="none" stroke="#000000" stroke-width="3.5" stroke-linecap="butt"/><path d="M208.01166,201.19214c37.96911,0 89.7537,0 97.68987,0c4.24032,0 6.37975,0.76819 6.37975,5.58228c0,1.37926 -0.17224,10.75061 -0.14088,12.1295c0.05113,2.24869 -1.07557,4.66689 -4.31946,4.76653c-6.86018,0.2107 -61.67399,1.68787 -100.60609,1.24637c-2.152,-0.02441 -4.38607,-2.73462 -4.18671,-5.78165c0.10667,-1.63043 0,-7.83833 0,-11.96202c0,-3.9291 1.16692,-5.98101 5.18354,-5.98101z" data-paper-data="{&quot;origPos&quot;:null,&quot;index&quot;:null}" fill="#000000" stroke="#ffffff" stroke-width="1.5" stroke-linecap="butt"/><text transform="translate(217.21418,217.44794) scale(0.34666,0.34666)" font-size="40" xml:space="preserve" data-paper-data="{&quot;origPos&quot;:null}" fill="#ffffff" fill-rule="nonzero" stroke="none" stroke-width="3" stroke-linecap="butt" stroke-linejoin="miter" stroke-miterlimit="10" stroke-dasharray="" stroke-dashoffset="0" font-family="Sans Serif" font-weight="normal" text-anchor="start" style="mix-blend-mode: normal"><tspan x="0" dy="0">Buy for 6.5K</tspan></text><path d="M187.335,183.66668c0,0 -7.44446,4.70869 -12.2093,6.60241c-2.84529,1.13082 -7.2907,1.14759 -7.2907,1.14759c0,0 -2.66128,-13.13665 -2.76451,-18.50453c-0.0919,-4.77895 3.01451,-7.49547 3.01451,-7.49547c0,0 2.36045,-3.70017 4.51131,-4.46833c3.31282,-1.18315 8.73869,-0.53167 8.73869,-0.53167" data-paper-data="{&quot;origPos&quot;:null}" fill="url(#color-1)" stroke="#8c6e1b" stroke-width="2" stroke-linecap="round"/><g data-paper-data="{&quot;origRot&quot;:0,&quot;origPos&quot;:null}" fill="none" stroke-width="3" stroke-linecap="round"><path d="M187.59841,168.35332l8.43408,15.37489" data-paper-data="{&quot;origPos&quot;:null}" stroke="#804d09"/><path d="M182.80578,174.04075c0,0 0.58384,-4.15024 4.55383,-6.08163c4.51069,-2.19444 7.26241,-1.22284 7.26241,-1.22284" data-paper-data="{&quot;origPos&quot;:null}" stroke="#b8b8b8"/></g></g></g></svg>